# xmcd CD database file
#
# Track frame offsets:
#	150
#	13175
#	26177
#	39115
#	54020
#	72055
#	85867
#	98700
#	112367
#	127795
#	142487
#	153960
#	171535
#	188152
#	220768
#
# Disc length: 4440 seconds
#
# Revision: 0
# Processed by: cddbd v1.5.1PL0 Copyright (c) Steve Scherf et al.
# Submitted via: CDex 1.51
#
DISCID=cd11560f
DTITLE=Chitaozinho e Xororo - Retratos-Chitaozinho e Xororo
DYEAR=2004
DGENRE=Sertanejo
TTITLE0=Fio de cabelo-Chitaozinho e Xororo
TTITLE1=Sonhos perdidos-Chitaozinho e Xororo
TTITLE2=Querida-Chitaozinho e Xororo
TTITLE3=Uma casa de caboclo-Chitaozinho e Xororo
TTITLE4=Nao desligue o radio-Chitaozinho e Xororo
TTITLE5=Debaixo do cobertor-Chitaozinho e Xororo
TTITLE6=Somos apaixonados-Chitaozinho e Xororo
TTITLE7=Quem eh voce-Chitaozinho e Xororo
TTITLE8=Amigo amante-Chitaozinho e Xororo
TTITLE9=Queixas-Chitaozinho e Xororo
TTITLE10=Cama de casal-Chitaozinho e Xororo
TTITLE11=Amor proibido-Chitaozinho e Xororo
TTITLE12=Fogao de lenha-Chitaozinho e Xororo
TTITLE13=Falando as paredes-Chitaozinho e Xororo
TTITLE14=Dados
EXTD=YEAR: 2004
EXTT0=
EXTT1=
EXTT2=
EXTT3=
EXTT4=
EXTT5=
EXTT6=
EXTT7=
EXTT8=
EXTT9=
EXTT10=
EXTT11=
EXTT12=
EXTT13=
EXTT14=
PLAYORDER=
